# xmcd
#
# Track frame offsets:
#	150
#	15522
#	29394
#	50015
#	61786
#	72807
#	89529
#	105650
#	123722
#	144343
#	158814
#	179435
#	193681
#	208903
#	227800
#	242922
#	263643
#	279090
#	292736
#	303757
#	315754
#
# Disc length: 4386 seconds
#
# Revision: 9
# Processed by: cddbd v1.5.2PL0 Copyright (c) Steve Scherf et al.
# Submitted via: EasyCDDAExtractor 16.0.6.1
#
DISCID=1f112015
DTITLE=Varios - JB-140 All That Blues
DYEAR=1994
DGENRE=Blues
TTITLE0=Willie Dixon and Memphis Slim - That's My Baby
TTITLE1=Lonnie Johnson - No Love for Sale
TTITLE2=Memphis SLim - Grinder Man Blues
TTITLE3=Odetta - Weeping Willow Blues
TTITLE4=Alberta Hunter - St. Louis Blues
TTITLE5=Otis Span - The Blues Never Die
TTITLE6=Fred McDowell - Milk Cow Blues
TTITLE7=Reverend Gary Davis - Say No to the Devil
TTITLE8=Linghtnin' Hopkins - Automobile Blues
TTITLE9=Sonny Terry - One Monkey Don't Stop the Show
TTITLE10=Memphis Span - Steady Rolling Blues
TTITLE11=Pink Anderson - I've Got Mine
TTITLE12=Lightinin' Hopkins - Back to New Orleans
TTITLE13=Billie ans Dede Pierce - Nobody Knows You When You're Down and Out
TTITLE14=Sonny Terry - Ida Mae
TTITLE15=Jesse Fuller - Leavin Memphis, Frisco Bound
TTITLE16=Lightnin' Hopkins - The Walkin Blues
TTITLE17=Jimmy Witherspoon - Baby, Baby, Baby
TTITLE18=Jesse Fuller - You Can't Keep a Good Man Down
TTITLE19=Big Joe Williams - Rollin and Tumblin
TTITLE20=King Curtis - Trouble in Mind
EXTD=
EXTT0=
EXTT1=
EXTT2=
EXTT3=
EXTT4=
EXTT5=
EXTT6=
EXTT7=
EXTT8=
EXTT9=
EXTT10=
EXTT11=
EXTT12=
EXTT13=
EXTT14=
EXTT15=
EXTT16=
EXTT17=
EXTT18=
EXTT19=
EXTT20=
PLAYORDER=
